<?xml version="1.0" encoding="UTF-8" standalone="no"?>
<!-- Created with Inkscape (http://www.inkscape.org/) -->

<svg
   version="1.1"
   id="svg2"
   width="1024"
   height="1024"
   viewBox="0 0 1024 1024"
   sodipodi:docname="f38568a0-6482-4d5c-906e-364ce3e8ff90.png"
   inkscape:version="1.1.2 (0a00cf5339, 2022-02-04)"
   xmlns:inkscape="http://www.inkscape.org/namespaces/inkscape"
   xmlns:sodipodi="http://sodipodi.sourceforge.net/DTD/sodipodi-0.dtd"
   xmlns="http://www.w3.org/2000/svg"
   xmlns:svg="http://www.w3.org/2000/svg">
  <defs
     id="defs6" />
  <sodipodi:namedview
     id="namedview4"
     pagecolor="#ffffff"
     bordercolor="#666666"
     borderopacity="1.0"
     inkscape:pageshadow="2"
     inkscape:pageopacity="0.0"
     inkscape:pagecheckerboard="0"
     showgrid="false"
     inkscape:zoom="0.56464921"
     inkscape:cx="521.56276"
     inkscape:cy="565.83804"
     inkscape:window-width="1291"
     inkscape:window-height="704"
     inkscape:window-x="75"
     inkscape:window-y="27"
     inkscape:window-maximized="1"
     inkscape:current-layer="g8" />
  <g
     inkscape:groupmode="layer"
     inkscape:label="Image"
     id="g8">
    <path
       style="fill:#000000"
       d="m 414.16776,770.03693 c 0.46298,-8.1936 2.64836,-11.90847 8.07571,-13.72769 1.95385,-0.65492 10.52651,-2.11758 19.05037,-3.25037 24.1579,-3.2105 34.77468,-7.16725 44.74263,-16.67506 L 491.68083,731 h 20.2072 20.20721 l 4.97172,4.97172 c 5.51087,5.51088 15.89377,10.98392 25.43304,13.4063 3.3,0.83799 11.625,2.25455 18.5,3.14792 14.61766,1.89947 20.91824,3.6893 23.78508,6.75672 2.39668,2.56436 4.52677,10.10222 4.04583,14.3172 L 608.5,776.5 l -97.36313,0.25497 -97.36312,0.25496 z M 433.2,738.8 c -1.87403,-1.87403 -1.41174,-11.23402 0.89305,-18.08155 4.81748,-14.31273 17.53862,-26.26984 33.3294,-31.32764 6.69685,-2.145 11.06884,-2.73347 25.57755,-3.44273 25.69619,-1.25616 39.84559,-5.39314 50.08492,-14.64376 11.35349,-10.2572 13.18267,-24.08936 4.35323,-32.91881 L 543,633.94737 V 606.97368 C 543,587.98387 543.32637,580 544.10265,580 c 2.18319,0 18.16338,8.02326 24.89954,12.50146 14.08281,9.36223 24.88424,24.36323 28.44084,39.49854 1.93227,8.22291 1.95626,22.45122 0.053,31.43564 -4.3938,20.74109 -22.36003,41.55417 -43.16934,50.00975 -3.33299,1.35431 -10.73249,3.45123 -16.44333,4.65982 -9.47946,2.00614 -12.94776,2.18336 -39.84189,2.03578 -37.82726,-0.20758 -41.96594,0.80654 -55.12152,13.50673 -6.88777,6.64933 -7.76035,7.11187 -9.71994,5.15228 z m 59.35983,-98.91163 c -0.37317,-19.4636 -0.53929,-47.96835 -0.36916,-63.34388 l 0.30933,-27.9555 2.5,-0.69482 c 1.375,-0.38214 10.0375,-0.73967 19.25,-0.79449 L 531,547 v 25.83661 c 0,14.21013 -0.29719,41.39934 -0.66043,60.42046 l -0.66042,34.58387 -3.58958,1.57291 c -5.32202,2.33205 -15.52854,4.48585 -24.72041,5.21654 l -8.13084,0.64635 z m -23.3003,-17.43125 C 452.41744,617.92156 436.70377,608.77463 425.91445,597.22594 411.07803,581.3453 404.15169,562.31256 405.27092,540.5 c 1.45455,-28.34785 18.2258,-50.52983 46.1228,-61.00296 12.26953,-4.60624 18.78237,-5.50037 47.10628,-6.4671 42.58408,-1.45344 48.31123,-1.88349 60,-4.50538 27.24904,-6.11219 43.54042,-20.62455 48.95908,-43.61276 1.06353,-4.51194 1.51574,-11.97684 1.52614,-25.19318 0.0116,-14.70263 0.30386,-18.89232 1.34591,-19.29219 0.73213,-0.28095 5.28862,0.92118 10.12554,2.67138 32.75648,11.85268 52.96669,44.70147 47.1879,76.69718 -4.59938,25.46566 -27.50978,51.20013 -55.82115,62.702 -17.58518,7.14421 -34.22441,10.03654 -66.32342,11.52873 -58.76402,2.73177 -60.43038,2.99763 -68.65764,10.95435 -7.56275,7.31406 -7.84507,15.80707 -0.78021,23.47153 L 480,572.72366 V 598.36183 624 l -2.75,-0.0658 c -1.5125,-0.0362 -5.10821,-0.70088 -7.99047,-1.47707 z M 288.72878,621.0235 c -20.98441,-3.79897 -41.08372,-15.38069 -53.91479,-31.06704 -4.20142,-5.13636 -9.81203,-16.37722 -9.8132,-19.66077 -7.3e-4,-2.02341 0.5483,-2.22858 6.69011,-2.5 L 238.3818,567.5 248.55587,542 c 5.59573,-14.025 19.91948,-49.74334 31.83054,-79.37408 20.16898,-50.1737 21.53479,-53.9664 19.88503,-55.2182 -0.97429,-0.73926 -2.11555,-1.35842 -2.53614,-1.37592 -1.84605,-0.0768 -4.72782,-6.80105 -4.72782,-11.0318 0,-8.31157 5.51041,-14.16667 13.33269,-14.16667 5.7979,0 9.8067,2.16732 12.18815,6.5894 L 320.45481,391 h 36.80398 c 28.56866,0 36.89119,0.2797 37.19371,1.25 0.21435,0.6875 0.6737,5.1875 1.02078,10 l 0.63105,8.75 H 354.57692 313.0495 l 0.90016,2.25 c 0.49508,1.2375 4.68631,11.475 9.31383,22.75 4.62752,11.275 18.67743,45.5875 31.22202,76.25 L 377.29385,568 h 6.48392 6.48391 l -0.59501,3.66662 c -2.27037,13.9907 -17.86561,30.94246 -37.16667,40.39956 -14.99208,7.34579 -22.77208,9.082 -42.5,9.48447 -9.075,0.18514 -18.64705,-0.0521 -21.27122,-0.52715 z M 302.93661,498.25 C 302.90175,459.8875 302.49974,429.4 302.04326,430.5 296.72994,443.30364 247,567.02415 247,567.43922 247,567.74765 259.6,568 275,568 h 28 l -0.0634,-69.75 z m 62.11992,60.5 c -2.11568,-5.0875 -7.42993,-18.025 -11.80943,-28.75 -6.27974,-15.3785 -37.45696,-91.26341 -41.29029,-100.5 -0.45652,-1.1 -0.85856,29.6125 -0.89342,68.25 L 311,568 h 28.95161 28.95161 z m 330.05645,61.76127 C 674.52087,615.86361 657.20017,605.94444 645.7116,592.22021 640.3756,585.84583 634,573.97455 634,570.41336 c 0,-2.14222 0.46927,-2.34049 6.19049,-2.61564 l 6.19049,-0.29772 5.65439,-14 c 3.10992,-7.7 16.79771,-41.675 30.41732,-75.5 13.6196,-33.825 25.40096,-62.7375 26.18079,-64.25 l 1.41788,-2.75 h -19.44888 -19.44889 l -4.49096,-6.75 c -2.47002,-3.7125 -5.65458,-7.84094 -7.07679,-9.17431 C 658.16363,393.74231 657,392.27981 657,391.82569 657,391.37156 667.31968,391 679.93261,391 c 21.81148,0 22.96269,-0.0948 23.54784,-1.93841 0.33838,-1.06613 2.18436,-3.31613 4.10219,-5 C 710.55699,381.45007 711.8679,381 716.5,381 c 4.64349,0 5.94061,0.44797 8.95126,3.09135 7.50912,6.59309 6.50899,18.38086 -1.94332,22.9044 -1.88355,1.00805 -2.53177,2.02 -2.21901,3.46415 0.24302,1.12205 11.11812,28.1401 24.1669,60.0401 22.35734,54.65639 38.18018,93.43497 39.27292,96.25 0.31929,0.82252 2.71428,1.25 7.00324,1.25 H 798.25 l -0.63747,3.18737 c -1.02651,5.13254 -4.97967,12.86026 -9.91215,19.37649 -9.19932,12.15308 -27.94008,24.00132 -45.20038,28.57648 -10.49111,2.78086 -37.65787,3.56681 -47.38702,1.37093 z M 711,500.08179 c 0,-37.35502 0.29123,-68.74252 0.64718,-69.75 0.44737,-1.26626 0.32079,-1.52306 -0.41004,-0.83179 -0.58146,0.55 -6.10008,13.6 -12.26358,29 -6.16351,15.4 -18.41106,45.775 -27.21679,67.5 -8.80573,21.725 -16.22649,40.0625 -16.49058,40.75 -0.37712,0.98174 5.55181,1.25 27.62682,1.25 H 711 Z M 773.06024,558.75 C 770.94661,553.6625 758.08971,522.275 744.48937,489 730.88902,455.725 719.59013,428.3125 719.38073,428.08333 719.17133,427.85417 719,459.24167 719,497.83333 V 568 h 28.95161 28.95161 z M 483.5,459.95691 C 441.84955,455.73587 414.63507,436.70025 408.5044,407.5 c -1.72707,-8.226 -1.98468,-30.42111 -0.45342,-39.06634 3.2546,-18.37494 16.31971,-44.00903 24.37979,-47.83379 1.95204,-0.9263 7.71617,-2.57526 12.80919,-3.66437 15.1226,-3.23384 21.51456,-5.86173 27.4513,-11.28584 5.1659,-4.71984 6.88035,-8.64966 3.77356,-8.64966 -0.84435,0 -2.57435,0.68089 -3.84444,1.51308 -5.12224,3.35622 -19.18584,7.48935 -38.62038,11.35008 -26.49291,5.26289 -36.66969,6.53048 -46.5,5.79187 -6.98191,-0.52458 -9.27297,-1.24082 -18.00276,-5.62805 C 363.10737,306.81569 358.21325,305 355.94724,305 c -6.734,0 -8.12981,4.7531 -2.2517,7.66764 5.52426,2.7391 5.6622,4.77781 0.27437,4.05515 -5.72208,-0.76749 -14.61089,-6.96155 -18.65533,-12.99974 -6.80648,-10.1618 -8.36264,-30.96072 -3.08427,-41.22305 3.16931,-6.16186 5.484,-8.28699 13.73624,-12.61137 9.42071,-4.93668 13.22977,-9.05969 16.5265,-17.88863 3.84162,-10.28824 6.90554,-15.30064 12.20325,-19.96387 9.40034,-8.27451 19.72712,-10.0194 59.3037,-10.02037 27.75395,-6.8e-4 35.51969,0.71016 44.51138,4.07438 20.37267,7.6224 38.27136,34.10059 43.05257,63.68927 2.37403,14.69178 2.14085,40.41772 -0.4806,53.02288 -2.64663,12.72624 -7.01577,24.90966 -11.60058,32.34844 -5.14551,8.34848 -4.4726,13.70209 2.0656,16.43393 C 514.28258,372.72708 522.84792,373 555.96788,373 H 597 l -0.0174,20.75 c -0.0191,22.83309 -1.09747,30.59629 -5.44057,39.16697 -6.91776,13.65155 -17.94126,20.50177 -40.54207,25.19366 -7.50084,1.55716 -14.65573,2.0549 -34,2.36528 -13.475,0.2162 -28.55,-0.0174 -33.5,-0.519 z M 565.01017,428.75 c 5.81256,-3.95599 7.48983,-7.14713 7.48983,-14.25 0,-7.12827 -1.66396,-10.2709 -7.59195,-14.3385 -2.81015,-1.92824 -4.38092,-2.27052 -8.95349,-1.95099 C 546.71804,398.85596 541,405.17553 541,414.73827 c 0,12.42999 14.17763,20.7037 24.01017,14.01173 z M 378.68555,284.82569 c 4.37727,-4.11223 2.15353,-10.75507 -3.15438,-9.42287 -2.39996,0.60235 -5.53117,5.04485 -5.53117,7.84752 0,3.96007 5.15238,4.89459 8.68555,1.57535 z m -27.44692,-2.9435 c 3.00667,-4.02709 -0.3289,-9.93599 -4.66875,-8.27063 -2.10113,0.80628 -3.74506,6.19259 -2.56372,8.39996 1.91884,3.58537 4.49342,3.53933 7.23247,-0.12933 z m 89.73371,-15.8625 c 7.91432,-5.63549 7.82314,-19.12555 -0.16216,-23.99406 -4.20753,-2.56525 -8.19762,-2.56733 -12.34125,-0.006 -3.33987,2.06416 -6.48837,8.04718 -6.44697,12.25104 0.0336,3.41568 3.48666,10.27217 6.09233,12.09726 3.20235,2.24301 9.4572,2.07382 12.85805,-0.34781 z"
       id="path845"
       sodipodi:nodetypes="sssscccssssscccssssssscssssssssssssscsscsscsscsssssssssssssssscccssscssscssssssscssscccssscccssscssssccssssscccssssscssscccssssssssssssscssssssssssscssssscccssssssssssssssssssssssssssscsssssssssssssssssssscscsscc" />
  </g>
</svg>
